<svg xmlns="http://www.w3.org/2000/svg" width="144" height="24" viewBox="0 0 144 24"><defs><style>.a{fill:#fff;}</style></defs><path class="a" d="M39.595,21.978V7.184a2.021,2.021,0,1,1,4.042,0V7.37a5.232,5.232,0,0,1,4.44-2.315c3.325,0,6.488,2.607,6.488,7.37v.053c0,4.763-3.11,7.371-6.488,7.371a5.47,5.47,0,0,1-4.44-2.128v4.257a2.021,2.021,0,1,1-4.042,0Zm76.8-9.446v-.054a7.718,7.718,0,0,1,15.422-.053v.053a7.718,7.718,0,0,1-15.422.054Zm-93.955,0v-.054a7.483,7.483,0,0,1,7.737-7.423,7.411,7.411,0,0,1,7.685,7.37v.053A7.484,7.484,0,0,1,30.119,19.9,7.41,7.41,0,0,1,22.434,12.533Zm-16.468,0v-.054A7.483,7.483,0,0,1,13.7,5.055a7.41,7.41,0,0,1,7.684,7.37v.053A7.483,7.483,0,0,1,13.65,19.9,7.41,7.41,0,0,1,5.966,12.533Zm127.211,5.693a1.611,1.611,0,0,1-.77-1.383,1.6,1.6,0,0,1,2.393-1.383,7.5,7.5,0,0,0,3.856,1.277c1.17,0,1.7-.426,1.7-1.065v-.053c0-.878-1.382-1.171-2.951-1.65-1.994-.585-4.254-1.517-4.254-4.284V9.632c0-2.9,2.34-4.523,5.212-4.523A10.022,10.022,0,0,1,142.777,6.2a1.649,1.649,0,0,1,.958,1.517,1.59,1.59,0,0,1-1.623,1.6,1.473,1.473,0,0,1-.744-.186,7.607,7.607,0,0,0-3.084-.9c-.984,0-1.49.426-1.49.985v.053c0,.8,1.356,1.171,2.9,1.7,1.994.665,4.307,1.624,4.307,4.231v.053c0,3.166-2.366,4.6-5.451,4.6A9.927,9.927,0,0,1,133.178,18.226ZM92.839,12.479v-.053c0-4.763,3.111-7.37,6.488-7.37a5.472,5.472,0,0,1,4.441,2.128V2.022a2.021,2.021,0,1,1,4.042,0v15.7a2.021,2.021,0,1,1-4.042,0v-.186a5.233,5.233,0,0,1-4.441,2.315C96,19.85,92.839,17.241,92.839,12.479ZM77.992,14.554V7.184a2.021,2.021,0,1,1,4.042,0v6.093c0,1.916.9,2.9,2.446,2.9s2.526-.985,2.526-2.9V7.184a2.021,2.021,0,1,1,4.041,0V17.721a2.021,2.021,0,1,1-4.041,0v-.16a5.041,5.041,0,0,1-4.175,2.289C79.774,19.85,77.992,17.827,77.992,14.554ZM55.984,18.226a1.61,1.61,0,0,1-.771-1.383,1.568,1.568,0,0,1,1.6-1.6,1.546,1.546,0,0,1,.8.213,7.5,7.5,0,0,0,3.856,1.277c1.17,0,1.7-.426,1.7-1.065v-.053c0-.878-1.383-1.171-2.952-1.65-1.994-.585-4.254-1.517-4.254-4.284V9.632c0-2.9,2.34-4.523,5.212-4.523A10.022,10.022,0,0,1,65.582,6.2a1.649,1.649,0,0,1,.958,1.517,1.589,1.589,0,0,1-1.622,1.6,1.476,1.476,0,0,1-.745-.186,7.6,7.6,0,0,0-3.084-.9c-.984,0-1.489.426-1.489.985v.053c0,.8,1.356,1.171,2.9,1.7,1.994.665,4.307,1.624,4.307,4.231v.053c0,3.166-2.366,4.6-5.45,4.6A9.925,9.925,0,0,1,55.984,18.226Zm12.932-2.687V8.78h-.133a1.729,1.729,0,0,1,0-3.459h.133V3.539a2.021,2.021,0,1,1,4.042,0V5.322h1.781a1.729,1.729,0,0,1,0,3.459H72.958v6.093c0,.931.4,1.384,1.3,1.384.133,0,.4-.027.479-.027a1.685,1.685,0,0,1,1.675,1.677,1.645,1.645,0,0,1-1.037,1.517,5.961,5.961,0,0,1-2.313.4C70.591,19.823,68.916,18.838,68.916,15.539Zm41.509,2.182V7.184a2.021,2.021,0,1,1,4.042,0V17.721a2.021,2.021,0,1,1-4.042,0ZM0,17.721V2.022a2.021,2.021,0,1,1,4.042,0v15.7a2.021,2.021,0,1,1-4.042,0ZM110.185,1.969V1.916a2.3,2.3,0,0,1,4.52,0v.053a2.291,2.291,0,0,1-4.52,0Z"/></svg>